<?xml version="1.0" encoding="utf-8"?>
<!-- Generator: Adobe Illustrator 23.0.5, SVG Export Plug-In . SVG Version: 6.00 Build 0)  -->
<svg version="1.1" id="Capa_1" xmlns="http://www.w3.org/2000/svg" xmlns:xlink="http://www.w3.org/1999/xlink" x="0px" y="0px"
	 viewBox="0 0 512 512" style="enable-background:new 0 0 512 512;" xml:space="preserve">
<style type="text/css">
	.st0{fill:#020202;}
	.st1{fill:#0AACE5;}
</style>
<g>
	<g>
		<path class="st0" d="M510.6,172.8l-57.1-70c-0.8-1-1.8-1.6-2.8-2.1L309.6,44.4c-1.3-0.5-2.6-0.5-3.9-0.3L97.2,96.6l0,0
			c-0.3,0-0.5,0.3-0.5,0.3c-0.3,0-0.3,0-0.5,0.3c-0.3,0-0.3,0.3-0.5,0.3c-0.3,0-0.3,0.3-0.5,0.3c-0.3,0-0.3,0.3-0.5,0.3
			c-0.3,0-0.3,0.3-0.3,0.3c-0.3,0.3-0.3,0.3-0.5,0.5l0,0l-87.1,106c0,0.3-0.3,0.3-0.3,0.5l-0.3,0.3c-0.3,0.3-0.3,0.8-0.5,1v0.3
			c0,0.3-0.3,0.5-0.3,0.8s0,0.3,0,0.5s0,0.3,0,0.5L0,315.5c0,2.3,1,4.7,3.1,5.7l60,38.2l-3.6,32.3c-0.3,2.8,1,5.4,3.6,6.5l79.3,38.5
			c0.8,0.5,1.8,0.5,2.8,0.5c1.6,0,3.1-0.5,4.4-1.8l34.4-32l-15.5,56.9c-0.5,2.1-0.3,4.1,1,5.7c1.3,1.6,3.1,2.6,5.2,2.6h28.2
			c2.1,0,4.1-1,5.4-2.8l71.1-104.4l79.9,3.1h0.3c1.3,0,2.6-0.5,3.6-1l57.1-39.8c2.8-2.1,3.6-5.9,1.6-9l-15.5-22.7l69.3,1l0,0
			c2.8,0,5.4-2.1,6.2-4.7l30-109.1c0-0.5,0.3-0.8,0.3-1.3c0-0.3,0-0.5,0-1l0,0C512.2,175.4,511.7,174.1,510.6,172.8z M198,376
			l-60-56.9l71.8-47.3l56.1,79.6L198,376z M291.5,139.5L154,170.2l-44.4-63.3l190.2-48.1L291.5,139.5z M140.3,173.4l-44.2,9.8
			l7.2-62.5L140.3,173.4z M83,186.3l-54,12.1l61-74.4L83,186.3z M81.4,199.7l-6.7,59.4l-49.6-46.8L81.4,199.7z M84.5,286.3l32.8,31
			L78,343.1L84.5,286.3z M86.3,270.3l8.3-73.4l53.8-12.1l53.8,76.5l-73.9,48.8L86.3,270.3z M271.3,336.9l-50.7-72.1l62.3-41.1
			L271.3,336.9z M213.2,254.2L162,181.9l127.9-28.7l-5.4,54L213.2,254.2z M302.4,162l15.8,23l-19.4,12.9L302.4,162z M304.2,142.1
			l8.5-82.7l122,49.1l-106,69.8L304.2,142.1z M13.2,312.4l4.4-89.4l55,52.2l-8,70L13.2,312.4z M143.9,423.2l-71.3-34.4l3.4-28.7
			l50.9-33.3l60,56.9L143.9,423.2z M199.2,455.8H183l18.6-67.4l57.6-20.7L199.2,455.8z M357.4,351.1l-74.4-2.6l13.7-133.9l28.4-18.6
			l82.2,120.4L357.4,351.1z M470.8,279.8l-61.2-1l83.5-80.6L470.8,279.8z M395.1,275.2l-58.9-86.3l111.1-73.1l49.6,61L395.1,275.2z"
			/>
		<circle class="st1" cx="446.5" cy="109.5" r="13.7"/>
		<circle class="st1" cx="100" cy="109.5" r="13.7"/>
		<circle class="st1" cx="69.3" cy="389.1" r="13.7"/>
	</g>
</g>
</svg>
